REM DIRINDEX 1\3,1\4,1\5,1\6,1\2\7,1\2\8,1\2\9,1\10
REM DIRNAME cjc056,folder01,folder02,folder03,folder04,folder05,folder06,folder07,folder08,folder09
TITLE ""
FILE "1-44 Level 3-371-384.mp3" MP3
  TRACK 01 AUDIO
    TITLE "0:"
    INDEX 01 00:00:00
  TRACK 02 AUDIO
    TITLE "7:cjc056_1304"
    INDEX 01 00:00:05
  TRACK 03 AUDIO
    TITLE "0:"
    INDEX 01 00:01:15
  TRACK 04 AUDIO
    TITLE "8:cjc056_1305"
    INDEX 01 00:01:28
  TRACK 05 AUDIO
    TITLE "0:"
    INDEX 01 00:02:36
  TRACK 06 AUDIO
    TITLE "9:cjc056_1306"
    INDEX 01 00:02:49
  TRACK 07 AUDIO
    TITLE "0:"
    INDEX 01 00:04:50
  TRACK 08 AUDIO
    TITLE "7:cjc056_1307"
    INDEX 01 00:05:26
  TRACK 09 AUDIO
    TITLE "0:"
    INDEX 01 00:06:33
  TRACK 10 AUDIO
    TITLE "8:cjc056_1308"
    INDEX 01 00:06:47
  TRACK 11 AUDIO
    TITLE "0:"
    INDEX 01 00:07:51
  TRACK 12 AUDIO
    TITLE "9:cjc056_1309"
    INDEX 01 00:07:64
  TRACK 13 AUDIO
    TITLE "0:"
    INDEX 01 00:09:49
  TRACK 14 AUDIO
    TITLE "7:cjc056_1310"
    INDEX 01 00:10:27
  TRACK 15 AUDIO
    TITLE "0:"
    INDEX 01 00:11:29
  TRACK 16 AUDIO
    TITLE "8:cjc056_1311"
    INDEX 01 00:11:44
  TRACK 17 AUDIO
    TITLE "0:"
    INDEX 01 00:12:63
  TRACK 18 AUDIO
    TITLE "9:cjc056_1312"
    INDEX 01 00:13:02
  TRACK 19 AUDIO
    TITLE "0:"
    INDEX 01 00:14:54
  TRACK 20 AUDIO
    TITLE "7:cjc056_1313"
    INDEX 01 00:15:32
  TRACK 21 AUDIO
    TITLE "0:"
    INDEX 01 00:16:61
  TRACK 22 AUDIO
    TITLE "8:cjc056_1314"
    INDEX 01 00:17:02
  TRACK 23 AUDIO
    TITLE "0:"
    INDEX 01 00:18:13
  TRACK 24 AUDIO
    TITLE "9:cjc056_1315"
    INDEX 01 00:18:27
  TRACK 25 AUDIO
    TITLE "0:"
    INDEX 01 00:20:28
  TRACK 26 AUDIO
    TITLE "7:cjc056_1316"
    INDEX 01 00:21:06
  TRACK 27 AUDIO
    TITLE "0:"
    INDEX 01 00:22:03
  TRACK 28 AUDIO
    TITLE "8:cjc056_1317"
    INDEX 01 00:22:17
  TRACK 29 AUDIO
    TITLE "0:"
    INDEX 01 00:23:22
  TRACK 30 AUDIO
    TITLE "9:cjc056_1318"
    INDEX 01 00:23:34
  TRACK 31 AUDIO
    TITLE "0:"
    INDEX 01 00:25:05
  TRACK 32 AUDIO
    TITLE "7:cjc056_1319"
    INDEX 01 00:25:56
  TRACK 33 AUDIO
    TITLE "0:"
    INDEX 01 00:26:56
  TRACK 34 AUDIO
    TITLE "8:cjc056_1320"
    INDEX 01 00:26:71
  TRACK 35 AUDIO
    TITLE "0:"
    INDEX 01 00:28:06
  TRACK 36 AUDIO
    TITLE "9:cjc056_1321"
    INDEX 01 00:28:19
  TRACK 37 AUDIO
    TITLE "0:"
    INDEX 01 00:29:68
  TRACK 38 AUDIO
    TITLE "7:cjc056_1322"
    INDEX 01 00:30:48
  TRACK 39 AUDIO
    TITLE "0:"
    INDEX 01 00:31:53
  TRACK 40 AUDIO
    TITLE "8:cjc056_1323"
    INDEX 01 00:31:67
  TRACK 41 AUDIO
    TITLE "0:"
    INDEX 01 00:33:11
  TRACK 42 AUDIO
    TITLE "9:cjc056_1324"
    INDEX 01 00:33:24
  TRACK 43 AUDIO
    TITLE "0:"
    INDEX 01 00:35:02
  TRACK 44 AUDIO
    TITLE "7:cjc056_1325"
    INDEX 01 00:35:55
  TRACK 45 AUDIO
    TITLE "0:"
    INDEX 01 00:36:60
  TRACK 46 AUDIO
    TITLE "8:cjc056_1326"
    INDEX 01 00:36:74
  TRACK 47 AUDIO
    TITLE "0:"
    INDEX 01 00:38:20
  TRACK 48 AUDIO
    TITLE "9:cjc056_1327"
    INDEX 01 00:38:33
  TRACK 49 AUDIO
    TITLE "0:"
    INDEX 01 00:40:09
  TRACK 50 AUDIO
    TITLE "7:cjc056_1328"
    INDEX 01 00:40:60
  TRACK 51 AUDIO
    TITLE "0:"
    INDEX 01 00:41:55
  TRACK 52 AUDIO
    TITLE "8:cjc056_1329"
    INDEX 01 00:41:69
  TRACK 53 AUDIO
    TITLE "0:"
    INDEX 01 00:43:21
  TRACK 54 AUDIO
    TITLE "9:cjc056_1330"
    INDEX 01 00:43:35
  TRACK 55 AUDIO
    TITLE "0:"
    INDEX 01 00:44:63
  TRACK 56 AUDIO
    TITLE "7:cjc056_1331"
    INDEX 01 00:45:41
  TRACK 57 AUDIO
    TITLE "0:"
    INDEX 01 00:46:39
  TRACK 58 AUDIO
    TITLE "8:cjc056_1332"
    INDEX 01 00:46:56
  TRACK 59 AUDIO
    TITLE "0:"
    INDEX 01 00:47:58
  TRACK 60 AUDIO
    TITLE "9:cjc056_1333"
    INDEX 01 00:47:72
  TRACK 61 AUDIO
    TITLE "0:"
    INDEX 01 00:49:31
  TRACK 62 AUDIO
    TITLE "7:cjc056_1334"
    INDEX 01 00:50:07
  TRACK 63 AUDIO
    TITLE "0:"
    INDEX 01 00:51:07
  TRACK 64 AUDIO
    TITLE "8:cjc056_1335"
    INDEX 01 00:51:22
  TRACK 65 AUDIO
    TITLE "0:"
    INDEX 01 00:52:43
  TRACK 66 AUDIO
    TITLE "9:cjc056_1336"
    INDEX 01 00:52:57
  TRACK 67 AUDIO
    TITLE "0:"
    INDEX 01 00:54:30
  TRACK 68 AUDIO
    TITLE "7:cjc056_1337"
    INDEX 01 00:55:06
  TRACK 69 AUDIO
    TITLE "0:"
    INDEX 01 00:56:12
  TRACK 70 AUDIO
    TITLE "8:cjc056_1338"
    INDEX 01 00:56:27
  TRACK 71 AUDIO
    TITLE "0:"
    INDEX 01 00:57:41
  TRACK 72 AUDIO
    TITLE "9:cjc056_1339"
    INDEX 01 00:57:54
  TRACK 73 AUDIO
    TITLE "0:"
    INDEX 01 00:59:26
  TRACK 74 AUDIO
    TITLE "7:cjc056_1340"
    INDEX 01 01:00:04
  TRACK 75 AUDIO
    TITLE "0:"
    INDEX 01 01:01:07
  TRACK 76 AUDIO
    TITLE "8:cjc056_1341"
    INDEX 01 01:01:21
  TRACK 77 AUDIO
    TITLE "0:"
    INDEX 01 01:02:36
  TRACK 78 AUDIO
    TITLE "9:cjc056_1342"
    INDEX 01 01:02:48
  TRACK 79 AUDIO
    TITLE "0:"
    INDEX 01 01:04:52
  TRACK 80 AUDIO
    TITLE "7:cjc056_1343"
    INDEX 01 01:05:30
  TRACK 81 AUDIO
    TITLE "0:"
    INDEX 01 01:06:36
  TRACK 82 AUDIO
    TITLE "8:cjc056_1344"
    INDEX 01 01:06:47
  TRACK 83 AUDIO
    TITLE "0:"
    INDEX 01 01:07:63
  TRACK 84 AUDIO
    TITLE "9:cjc056_1345"
    INDEX 01 01:07:74
  TRACK 85 AUDIO
    TITLE "0:"
    INDEX 01 01:09:52
